<svg width="28" height="28" viewBox="0 0 28 28" fill="none" xmlns="http://www.w3.org/2000/svg">
<path d="M13.999 14.292C15.3396 14.292 16.6677 14.5563 17.9062 15.0693C19.1446 15.5823 20.2699 16.3344 21.2178 17.2822C22.1656 18.2301 22.9177 19.3553 23.4307 20.5938C23.9599 21.8716 23.6287 23.1144 22.8506 23.9951C22.0921 24.8533 20.9151 25.3749 19.668 25.375H4.66602C4.43405 25.375 4.21092 25.2831 4.04688 25.1191C3.88296 24.9551 3.7911 24.7319 3.79102 24.5C3.79106 23.1597 4.05548 21.8321 4.56836 20.5938C5.08133 19.3554 5.83346 18.2301 6.78125 17.2822C7.72909 16.3344 8.85439 15.5823 10.0928 15.0693C11.3312 14.5564 12.6586 14.2921 13.999 14.292ZM13.999 2.625C16.7373 2.625 18.9578 4.84475 18.958 7.58301C18.958 10.3214 16.7374 12.542 13.999 12.542C11.2608 12.5417 9.04102 10.3213 9.04102 7.58301C9.04119 4.84491 11.2609 2.62526 13.999 2.625Z" fill="#EE0033"/>
</svg>
