<svg width="64" height="64" viewBox="0 0 64 64" fill="none" xmlns="http://www.w3.org/2000/svg">
<path d="M0 32C0 14.3269 14.3269 0 32 0C49.6731 0 64 14.3269 64 32C64 49.6731 49.6731 64 32 64C14.3269 64 0 49.6731 0 32Z" fill="#FFEDF1"/>
<path d="M19.0657 43.3576C18.3621 41.659 18 39.8385 18 38C18 36.1615 18.3621 34.341 19.0657 32.6424C19.7693 30.9439 20.8005 29.4005 22.1005 28.1005C23.4005 26.8005 24.9439 25.7693 26.6424 25.0657C28.341 24.3621 30.1615 24 32 24C33.8385 24 35.659 24.3621 37.3576 25.0657C39.0561 25.7693 40.5995 26.8005 41.8995 28.1005C43.1995 29.4005 44.2307 30.9439 44.9343 32.6424C45.6379 34.341 46 36.1615 46 38C46 39.8385 45.6379 41.659 44.9343 43.3576C44.2307 45.0561 43.1995 46.5995 41.8995 47.8995C40.5995 49.1995 39.0561 50.2307 37.3576 50.9343C35.659 51.6379 33.8385 52 32 52C30.1615 52 28.341 51.6379 26.6424 50.9343C24.9439 50.2307 23.4005 49.1995 22.1005 47.8995C20.8005 46.5995 19.7693 45.0561 19.0657 43.3576Z" stroke="#EE0033" stroke-width="3" stroke-linecap="round"/>
<path d="M24 16L32 24L40 16L36 12H32H28L24 16Z" stroke="#EE0033" stroke-width="3" stroke-linecap="round"/>
</svg>
