<svg width="64" height="64" viewBox="0 0 64 64" fill="none" xmlns="http://www.w3.org/2000/svg">
<path d="M0 32C0 14.3269 14.3269 0 32 0C49.6731 0 64 14.3269 64 32C64 49.6731 49.6731 64 32 64C14.3269 64 0 49.6731 0 32Z" fill="#FFEDF1"/>
<g clip-path="url(#clip0_29_4448)">
<path d="M46.0002 53.9997V43.7697C46.0002 41.7677 45.9302 40.1397 45.8342 38.8527C45.6642 36.5707 43.7302 34.9887 41.4442 35.0677C34.9872 35.2907 28.3362 36.0587 22.2092 37.2907C20.0222 37.7307 18.3472 39.4347 18.1622 41.6577C18.0505 43.0405 17.9965 44.4274 18.0002 45.8147V53.9997M31.0342 10.0197C31.5942 9.8897 32.0472 10.3927 32.0232 10.9677C31.9222 13.4217 32.0852 17.3977 33.9422 19.4027C34.3312 19.8227 34.9642 19.9387 35.4292 19.6047C36.5392 18.8087 37.2942 17.0787 37.7942 15.3707C38.0172 14.6107 38.9722 14.3327 39.4652 14.9517C40.9192 16.7727 42.0002 19.0397 42.0002 21.7537C42.0002 27.4477 37.5232 30.0017 32.0002 30.0017C26.4772 30.0017 22.0002 27.4477 22.0002 21.7537C22.0002 16.0017 26.8632 12.2557 29.8062 10.5137C30.1962 10.2837 30.6102 10.1187 31.0342 10.0197Z" stroke="#EE0033" stroke-width="3" stroke-linecap="round"/>
</g>
<defs>
<clipPath id="clip0_29_4448">
<rect width="48" height="48" fill="white" transform="translate(8 8)"/>
</clipPath>
</defs>
</svg>
