<svg width="64" height="64" viewBox="0 0 64 64" fill="none" xmlns="http://www.w3.org/2000/svg">
<path d="M0 32C0 14.3269 14.3269 0 32 0C49.6731 0 64 14.3269 64 32C64 49.6731 49.6731 64 32 64C14.3269 64 0 49.6731 0 32Z" fill="#FFEDF1"/>
<path d="M41 21.5002V26.0002M45.5 26.0002H41M41 26.0002V30.5002M41 26.0002H36.5M18.2136 38.0447C14.7515 34.3157 12 30.0554 12 25.9342C12 14.1662 23 9.77219 32 18.8602C41 9.77219 52 14.1662 52 25.9342C52 32.9782 43.96 40.4282 38.076 44.9382C35.4187 46.9731 34.0774 48.0002 32 48.0002C29.92 48.0002 28.588 46.9802 25.924 44.9382C25.1831 44.3705 24.408 43.7562 23.6192 43.1019" stroke="#EE0033" stroke-width="3" stroke-linecap="round"/>
</svg>
