<svg width="24" height="24" viewBox="0 0 24 24" fill="none" xmlns="http://www.w3.org/2000/svg">
<path d="M12 1.25C17.9242 1.25 22.75 6.07579 22.75 12C22.75 17.9242 17.9242 22.75 12 22.75C6.07579 22.75 1.25 17.9242 1.25 12C1.25 6.07579 6.07579 1.25 12 1.25ZM12 2.75C6.90421 2.75 2.75 6.90421 2.75 12C2.75 17.0958 6.90421 21.25 12 21.25C17.0958 21.25 21.25 17.0958 21.25 12C21.25 6.90421 17.0958 2.75 12 2.75ZM12.75 15.9648H11.25V11.3398H12.75V15.9648ZM12 7.12305C12.6902 7.12305 13.2498 7.68286 13.25 8.37305C13.2497 9.06318 12.6902 9.62305 12 9.62305C11.3098 9.62305 10.7503 9.06318 10.75 8.37305C10.7502 7.68286 11.3098 7.12305 12 7.12305Z" fill="#747A80"/>
</svg>
