<svg width="96" height="40" viewBox="0 0 96 40" fill="none" xmlns="http://www.w3.org/2000/svg">
<g clip-path="url(#clip0_29_4176)">
<path d="M22.3489 4.9248H20.7516C20.1156 4.9248 19.5996 5.43657 19.5996 6.06726V17.8061C19.5996 18.4368 20.1156 18.9486 20.7516 18.9486H22.3511C22.987 18.9486 23.503 18.4368 23.503 17.8061V6.06726C23.5009 5.43657 22.9849 4.9248 22.3489 4.9248Z" fill="#EE0033"/>
<path d="M16.5999 4.9248C15.5914 4.9248 14.7456 5.52363 14.3366 6.38154L10.0928 15.3258C9.99216 15.5382 9.79303 15.8822 9.62602 15.8822C9.45901 15.8822 9.25987 15.5382 9.15924 15.3258L4.88539 6.38154C4.47427 5.52363 3.6285 4.9248 2.62213 4.9248H0.15332L6.88956 17.8634C7.55761 19.1333 8.9237 19.1078 9.62602 19.1078C10.5938 19.1078 11.7265 19.0547 12.3282 17.8634L19.0644 4.9248H16.5999Z" fill="#EE0033"/>
<path d="M91.0431 2.77527C91.0431 2.14458 90.527 1.63281 89.8911 1.63281H88.2916C87.6557 1.63281 87.1396 2.14458 87.1396 2.77527V14.3719C87.1396 16.145 87.7734 17.177 88.9083 17.9181C90.0089 18.6316 91.2765 18.9502 93.6446 18.9502H94.9272C95.5632 18.9502 96.0792 18.4384 96.0792 17.8077V16.5697H95.1114C94.4112 16.5697 92.9445 16.5421 92.0751 15.9602C90.9424 15.2191 91.0409 13.8962 91.0409 12.9427V2.77527H91.0431Z" fill="#EE0033"/>
<path d="M66.0597 16.5676C65.3595 16.5676 63.8907 16.54 63.0235 15.9581C61.8908 15.217 61.9893 13.8941 61.9893 12.9406V7.30688H65.7728C66.4087 7.30688 66.9248 6.79511 66.9248 6.16442V4.92428H61.9914V2.77527C61.9914 2.14458 61.4754 1.63281 60.8394 1.63281H59.24C58.604 1.63281 58.088 2.14458 58.088 2.77527V4.92428H49.9493V2.77527C49.9493 2.14458 49.4332 1.63281 48.7973 1.63281H47.1978C46.5619 1.63281 46.0458 2.14458 46.0458 2.77527V4.92428H43.6113V6.16442C43.6113 6.79511 44.1273 7.30688 44.7633 7.30688H46.048V14.3719C46.048 16.145 46.6818 17.177 47.8145 17.9181C48.9151 18.6316 50.1827 18.9502 52.5508 18.9502H53.8334C54.4693 18.9502 54.9854 18.4384 54.9854 17.8077V16.5697H54.0176C53.3174 16.5697 51.8506 16.5421 50.9835 15.9602C49.8486 15.2191 49.9493 13.8962 49.9493 12.9427V7.30688H58.088V14.3719C58.088 16.145 58.7218 17.177 59.8566 17.9181C60.9572 18.6316 62.2248 18.9502 64.593 18.9502H65.8756C66.5115 18.9502 67.0275 18.4384 67.0275 17.8077V16.5697H66.0597V16.5676Z" fill="#EE0033"/>
<path d="M42.1786 17.8076V16.5696H33.5409C32.1063 16.5696 30.4726 16.4103 29.9715 14.9026C29.8388 14.4801 29.7381 13.5797 29.7381 12.9702H40.0117C40.7118 12.9702 41.3799 12.864 41.913 12.4393C42.6475 11.8575 42.7481 11.0378 42.7481 10.3222C42.7481 8.54904 42.3135 6.8035 40.245 5.77147C38.6113 4.95179 36.4765 4.87109 34.4081 4.87109C32.7401 4.87109 29.7381 4.87109 27.8046 6.19405C25.8711 7.51701 25.7041 9.44729 25.7041 12.0677C25.7041 13.9194 25.8047 15.8518 26.9717 17.1748C28.4384 18.8163 30.5732 18.948 32.374 18.948H41.0287C41.6625 18.9501 42.1786 18.4383 42.1786 17.8076ZM38.7098 9.76794C38.7098 10.1396 38.6092 10.5876 37.8426 10.5876H32.2926C30.8815 10.5876 29.7381 11.2268 29.7381 12.0168V10.5876C29.7703 9.66177 29.7381 8.89305 30.539 8.17955C31.6074 7.22608 33.2069 7.25369 34.2411 7.25369C35.3417 7.25369 36.6093 7.30678 37.5771 7.88862C38.1424 8.23263 38.7098 8.89305 38.7098 9.76794Z" fill="#EE0033"/>
<path d="M84.3709 17.8076V16.5696H75.7333C74.2987 16.5696 72.665 16.4103 72.1639 14.9026C72.0312 14.4801 71.9305 13.5797 71.9305 12.9702H82.204C82.9042 12.9702 83.5723 12.864 84.1054 12.4393C84.8399 11.8575 84.9384 11.0378 84.9384 10.3222C84.9384 8.54904 84.5037 6.8035 82.4374 5.77147C80.8037 4.95179 78.6689 4.87109 76.6005 4.87109C74.9325 4.87109 71.9305 4.87109 69.997 6.19405C68.0614 7.51701 67.8965 9.44729 67.8965 12.0677C67.8965 13.9194 67.9971 15.8518 69.1641 17.1748C70.6308 18.8163 72.7656 18.948 74.5685 18.948H83.2233C83.8549 18.9501 84.3709 18.4383 84.3709 17.8076ZM80.9022 9.76794C80.9022 10.1396 80.8015 10.5876 80.035 10.5876H74.485C73.0739 10.5876 71.9305 11.2268 71.9305 12.0168V10.5876C71.9648 9.66177 71.9305 8.89305 72.7313 8.17955C73.7998 7.22608 75.3993 7.25369 76.4335 7.25369C77.5341 7.25369 78.8017 7.30678 79.7695 7.88862C80.3348 8.23263 80.9022 8.89305 80.9022 9.76794Z" fill="#EE0033"/>
<path d="M22.3489 1H20.7516C20.1156 1 19.5996 1.51177 19.5996 2.14246V2.45886V5.08991C19.5996 4.39764 20.3769 3.60132 21.5503 3.60132H22.3511C22.987 3.60132 23.503 3.08955 23.503 2.45886V2.14246C23.5009 1.51177 22.9849 1 22.3489 1Z" fill="#EE0033"/>
<path d="M41.4893 35.9709V27.498H43.061V29.5557H45.1957C46.0736 29.5557 46.7524 29.7214 47.2363 30.0526C47.7202 30.3839 47.9622 30.9487 47.9622 31.7472V35.9709H46.3905V32.1209C46.3905 31.6198 46.2749 31.2503 46.0415 31.0082C45.8081 30.7661 45.4291 30.6451 44.9002 30.6451H43.061V35.9709H41.4893Z" fill="black"/>
<path d="M50.765 28.7085H49.1934V27.4004H50.765V28.7085ZM49.1955 35.971V29.5558H50.7672V35.971H49.1955Z" fill="black"/>
<path d="M56.9812 35.971H54.6987C53.6238 35.971 52.8701 35.6971 52.4375 35.1471C52.0029 34.5992 51.7866 33.7986 51.7866 32.7496C51.7866 31.7006 52.0007 30.9064 52.4311 30.3649C52.8615 29.8234 53.6174 29.5537 54.7008 29.5537H57.3452C58.1503 29.5537 58.5528 29.9168 58.5528 30.6431V35.472C58.5528 36.383 58.3087 37.0476 57.8206 37.4638C57.3324 37.88 56.553 38.0881 55.4781 38.0881H52.2834V36.9988H55.4781C56.3731 36.9988 56.8741 36.6569 56.9812 35.971ZM56.5786 30.6452H55.0884C54.7222 30.6452 54.4225 30.694 54.1891 30.7896C53.9557 30.8873 53.7865 31.0402 53.6794 31.2504C53.5724 31.4606 53.4996 31.6751 53.4653 31.8981C53.4289 32.121 53.4118 32.4056 53.4118 32.7517C53.4118 33.0979 53.4289 33.3824 53.4653 33.6054C53.5017 33.8283 53.5724 34.045 53.6794 34.2594C53.7865 34.4739 53.9578 34.631 54.1891 34.7309C54.4225 34.8328 54.7222 34.8816 55.0884 34.8816H56.9812V31.0083C56.9812 30.7662 56.8484 30.6452 56.5786 30.6452Z" fill="black"/>
<path d="M59.7881 35.9709V27.498H61.3598V29.5557H63.4946C64.3725 29.5557 65.0512 29.7213 65.5351 30.0526C66.0191 30.3839 66.261 30.9487 66.261 31.7472V35.9709H64.6894V32.1209C64.6894 31.6198 64.5737 31.2503 64.3403 31.0082C64.107 30.7661 63.728 30.6451 63.1991 30.6451H61.3598V35.9709H59.7881Z" fill="black"/>
<path d="M74.5818 35.9709H73.6011C72.7511 35.9709 72.1023 35.8095 71.6548 35.4867C71.2073 35.164 70.9846 34.6267 70.9846 33.8771V30.6451H70.0039V29.5557H70.9846V27.498H72.5562V29.5557H74.5839V30.6451H72.5562V33.5862C72.5562 34.0533 72.6911 34.3867 72.9588 34.5842C73.2264 34.7817 73.6397 34.8815 74.1943 34.8815H74.5839V35.9709H74.5818Z" fill="black"/>
<path d="M81.6158 35.9709H77.6696C77.115 35.9709 76.6568 35.9029 76.2928 35.7649C75.9309 35.6269 75.6547 35.4124 75.4663 35.1172C75.2779 34.8221 75.1515 34.4929 75.083 34.1298C75.0145 33.7667 74.9824 33.3059 74.9824 32.7495C74.9824 31.5072 75.2436 30.6515 75.7682 30.1843C76.2928 29.7171 77.175 29.4814 78.419 29.4814C79.5282 29.4814 80.3761 29.664 80.9628 30.0314C81.5495 30.3988 81.8428 31.0613 81.8428 32.0233C81.8428 32.8302 81.4767 33.2337 80.7422 33.2337H76.6076C76.6076 33.79 76.7082 34.2041 76.9095 34.4738C77.1107 34.7435 77.5197 34.8794 78.1385 34.8794H81.6158V35.9709ZM76.6097 32.1464H79.8729C80.1063 32.1464 80.2219 32.0211 80.2219 31.7706C80.2219 31.3756 80.0485 31.0762 79.7059 30.8744C79.3611 30.6727 78.9351 30.5729 78.4233 30.5729C77.7617 30.5729 77.2927 30.696 77.0208 30.9424C76.7446 31.1866 76.6097 31.5879 76.6097 32.1464Z" fill="black"/>
<path d="M88.6771 30.6451H86.0863C85.7651 30.6451 85.491 30.6812 85.2683 30.7534C85.0435 30.8256 84.8679 30.919 84.7373 31.0316C84.6067 31.1441 84.5061 31.297 84.4354 31.4924C84.3648 31.6856 84.3198 31.8767 84.3005 32.0615C84.2834 32.2462 84.2727 32.4777 84.2727 32.7516C84.2727 33.0978 84.2898 33.3823 84.3262 33.6053C84.3626 33.8283 84.4376 34.0449 84.5553 34.2593C84.6709 34.4738 84.8572 34.6309 85.112 34.7308C85.3668 34.8327 85.6923 34.8815 86.0863 34.8815H88.8377V35.9709H85.6966C84.5596 35.9709 83.7674 35.6991 83.3198 35.1533C82.8723 34.6097 82.6475 33.807 82.6475 32.7516C82.6475 31.7026 82.8702 30.9084 83.3198 30.3669C83.7674 29.8254 84.5596 29.5557 85.6966 29.5557H88.6771V30.6451Z" fill="black"/>
<path d="M89.7803 35.9709V27.498H91.3519V29.5557H93.4867C94.3646 29.5557 95.0434 29.7213 95.5273 30.0526C96.0112 30.3839 96.2531 30.9487 96.2531 31.7472V35.9709H94.6815V32.1209C94.6815 31.6198 94.5659 31.2503 94.3325 31.0082C94.0991 30.7661 93.7201 30.6451 93.1912 30.6451H91.3519V35.9709H89.7803Z" fill="black"/>
</g>
<defs>
<clipPath id="clip0_29_4176">
<rect width="96" height="40" fill="white"/>
</clipPath>
</defs>
</svg>
