<svg width="96" height="40" viewBox="0 0 96 40" fill="none" xmlns="http://www.w3.org/2000/svg">
<g clip-path="url(#clip0_2_4632)">
<path d="M22.3489 4.92432H20.7516C20.1156 4.92432 19.5996 5.43609 19.5996 6.06678V17.8056C19.5996 18.4363 20.1156 18.9481 20.7516 18.9481H22.3511C22.987 18.9481 23.503 18.4363 23.503 17.8056V6.06678C23.5009 5.43609 22.9849 4.92432 22.3489 4.92432Z" fill="#EE0033"/>
<path d="M16.5997 4.92432C15.5912 4.92432 14.7454 5.52315 14.3364 6.38106L10.0926 15.3253C9.99192 15.5377 9.79279 15.8817 9.62578 15.8817C9.45877 15.8817 9.25963 15.5377 9.159 15.3253L4.88515 6.38106C4.47403 5.52315 3.62826 4.92432 2.62189 4.92432H0.153076L6.88932 17.8629C7.55737 19.1328 8.92346 19.1073 9.62578 19.1073C10.5936 19.1073 11.7263 19.0542 12.328 17.8629L19.0642 4.92432H16.5997Z" fill="#EE0033"/>
<path d="M91.0431 2.77527C91.0431 2.14458 90.527 1.63281 89.8911 1.63281H88.2916C87.6557 1.63281 87.1396 2.14458 87.1396 2.77527V14.3719C87.1396 16.145 87.7734 17.177 88.9083 17.9181C90.0089 18.6316 91.2765 18.9502 93.6446 18.9502H94.9272C95.5632 18.9502 96.0792 18.4384 96.0792 17.8077V16.5697H95.1114C94.4112 16.5697 92.9445 16.5421 92.0751 15.9602C90.9424 15.2191 91.0409 13.8962 91.0409 12.9427V2.77527H91.0431Z" fill="#EE0033"/>
<path d="M66.0595 16.5676C65.3593 16.5676 63.8905 16.54 63.0233 15.9581C61.8906 15.217 61.9891 13.8941 61.9891 12.9406V7.30688H65.7726C66.4085 7.30688 66.9246 6.79511 66.9246 6.16442V4.92428H61.9912V2.77527C61.9912 2.14458 61.4752 1.63281 60.8392 1.63281H59.2398C58.6038 1.63281 58.0878 2.14458 58.0878 2.77527V4.92428H49.9491V2.77527C49.9491 2.14458 49.433 1.63281 48.7971 1.63281H47.1976C46.5617 1.63281 46.0456 2.14458 46.0456 2.77527V4.92428H43.6111V6.16442C43.6111 6.79511 44.1271 7.30688 44.7631 7.30688H46.0478V14.3719C46.0478 16.145 46.6816 17.177 47.8143 17.9181C48.9149 18.6316 50.1825 18.9502 52.5506 18.9502H53.8332C54.4691 18.9502 54.9852 18.4384 54.9852 17.8077V16.5697H54.0174C53.3172 16.5697 51.8504 16.5421 50.9833 15.9602C49.8484 15.2191 49.9491 13.8962 49.9491 12.9427V7.30688H58.0878V14.3719C58.0878 16.145 58.7216 17.177 59.8564 17.9181C60.957 18.6316 62.2246 18.9502 64.5928 18.9502H65.8754C66.5113 18.9502 67.0273 18.4384 67.0273 17.8077V16.5697H66.0595V16.5676Z" fill="#EE0033"/>
<path d="M42.1786 17.8077V16.5697H33.5409C32.1063 16.5697 30.4726 16.4104 29.9715 14.9027C29.8388 14.4802 29.7381 13.5798 29.7381 12.9703H40.0117C40.7118 12.9703 41.3799 12.8641 41.913 12.4394C42.6475 11.8576 42.7481 11.0379 42.7481 10.3223C42.7481 8.54917 42.3135 6.80363 40.245 5.7716C38.6113 4.95192 36.4765 4.87122 34.4081 4.87122C32.7401 4.87122 29.7381 4.87122 27.8046 6.19418C25.8711 7.51714 25.7041 9.44742 25.7041 12.0678C25.7041 13.9195 25.8047 15.8519 26.9717 17.1749C28.4384 18.8164 30.5732 18.9481 32.374 18.9481H41.0287C41.6625 18.9502 42.1786 18.4384 42.1786 17.8077ZM38.7098 9.76807C38.7098 10.1397 38.6092 10.5878 37.8426 10.5878H32.2926C30.8815 10.5878 29.7381 11.2269 29.7381 12.0169V10.5878C29.7703 9.6619 29.7381 8.89318 30.539 8.17968C31.6074 7.22621 33.2069 7.25382 34.2411 7.25382C35.3417 7.25382 36.6093 7.30691 37.5771 7.88875C38.1424 8.23276 38.7098 8.89318 38.7098 9.76807Z" fill="#EE0033"/>
<path d="M84.3709 17.8077V16.5697H75.7333C74.2987 16.5697 72.665 16.4104 72.1639 14.9027C72.0312 14.4802 71.9305 13.5798 71.9305 12.9703H82.204C82.9042 12.9703 83.5723 12.8641 84.1054 12.4394C84.8399 11.8576 84.9384 11.0379 84.9384 10.3223C84.9384 8.54917 84.5037 6.80363 82.4374 5.7716C80.8037 4.95192 78.6689 4.87122 76.6005 4.87122C74.9325 4.87122 71.9305 4.87122 69.997 6.19418C68.0614 7.51714 67.8965 9.44742 67.8965 12.0678C67.8965 13.9195 67.9971 15.8519 69.1641 17.1749C70.6308 18.8164 72.7656 18.9481 74.5685 18.9481H83.2233C83.8549 18.9502 84.3709 18.4384 84.3709 17.8077ZM80.9022 9.76807C80.9022 10.1397 80.8015 10.5878 80.035 10.5878H74.485C73.0739 10.5878 71.9305 11.2269 71.9305 12.0169V10.5878C71.9648 9.6619 71.9305 8.89318 72.7313 8.17968C73.7998 7.22621 75.3993 7.25382 76.4335 7.25382C77.5341 7.25382 78.8017 7.30691 79.7695 7.88875C80.3348 8.23276 80.9022 8.89318 80.9022 9.76807Z" fill="#EE0033"/>
<path d="M22.3489 1H20.7516C20.1156 1 19.5996 1.51177 19.5996 2.14246V2.45886V5.08991C19.5996 4.39764 20.3769 3.60132 21.5503 3.60132H22.3511C22.987 3.60132 23.503 3.08955 23.503 2.45886V2.14246C23.5009 1.51177 22.9849 1 22.3489 1Z" fill="#EE0033"/>
<path d="M41.4895 35.9713V27.4984H43.0612V29.5561H45.1959C46.0738 29.5561 46.7526 29.7218 47.2365 30.053C47.7204 30.3843 47.9624 30.9491 47.9624 31.7476V35.9713H46.3907V32.1213C46.3907 31.6202 46.2751 31.2507 46.0417 31.0086C45.8083 30.7665 45.4293 30.6455 44.9004 30.6455H43.0612V35.9713H41.4895Z" fill="black"/>
<path d="M50.7652 28.7089H49.1936V27.4008H50.7652V28.7089ZM49.1957 35.9714V29.5562H50.7674V35.9714H49.1957Z" fill="black"/>
<path d="M56.9812 35.9713H54.6987C53.6238 35.9713 52.8701 35.6974 52.4375 35.1474C52.0029 34.5995 51.7866 33.7989 51.7866 32.7499C51.7866 31.7009 52.0007 30.9067 52.4311 30.3652C52.8615 29.8237 53.6174 29.554 54.7008 29.554H57.3452C58.1503 29.554 58.5528 29.9171 58.5528 30.6434V35.4723C58.5528 36.3833 58.3087 37.0479 57.8206 37.4641C57.3324 37.8803 56.553 38.0884 55.4781 38.0884H52.2834V36.9991H55.4781C56.3731 36.9991 56.8741 36.6572 56.9812 35.9713ZM56.5786 30.6455H55.0884C54.7222 30.6455 54.4225 30.6943 54.1891 30.7899C53.9557 30.8876 53.7865 31.0405 53.6794 31.2507C53.5724 31.4609 53.4996 31.6754 53.4653 31.8984C53.4289 32.1213 53.4118 32.4059 53.4118 32.752C53.4118 33.0982 53.4289 33.3827 53.4653 33.6057C53.5017 33.8286 53.5724 34.0453 53.6794 34.2597C53.7865 34.4742 53.9578 34.6313 54.1891 34.7312C54.4225 34.8331 54.7222 34.8819 55.0884 34.8819H56.9812V31.0086C56.9812 30.7665 56.8484 30.6455 56.5786 30.6455Z" fill="black"/>
<path d="M59.7883 35.9713V27.4984H61.36V29.5561H63.4948C64.3727 29.5561 65.0514 29.7217 65.5353 30.053C66.0193 30.3843 66.2612 30.9491 66.2612 31.7476V35.9713H64.6896V32.1213C64.6896 31.6202 64.5739 31.2507 64.3405 31.0086C64.1072 30.7665 63.7282 30.6455 63.1993 30.6455H61.36V35.9713H59.7883Z" fill="black"/>
<path d="M74.5818 35.9713H73.6011C72.7511 35.9713 72.1023 35.8099 71.6548 35.4871C71.2073 35.1644 70.9846 34.6271 70.9846 33.8775V30.6455H70.0039V29.5561H70.9846V27.4984H72.5562V29.5561H74.5839V30.6455H72.5562V33.5866C72.5562 34.0537 72.6911 34.3871 72.9588 34.5846C73.2264 34.7821 73.6397 34.8819 74.1943 34.8819H74.5839V35.9713H74.5818Z" fill="black"/>
<path d="M81.6156 35.9713H77.6694C77.1148 35.9713 76.6566 35.9033 76.2926 35.7653C75.9307 35.6273 75.6545 35.4128 75.4661 35.1176C75.2777 34.8225 75.1513 34.4933 75.0828 34.1302C75.0143 33.7671 74.9822 33.3063 74.9822 32.7499C74.9822 31.5076 75.2434 30.6519 75.768 30.1847C76.2926 29.7175 77.1748 29.4818 78.4188 29.4818C79.528 29.4818 80.3759 29.6644 80.9626 30.0318C81.5493 30.3992 81.8426 31.0617 81.8426 32.0237C81.8426 32.8306 81.4765 33.2341 80.742 33.2341H76.6074C76.6074 33.7904 76.708 34.2045 76.9093 34.4742C77.1105 34.7439 77.5195 34.8798 78.1383 34.8798H81.6156V35.9713ZM76.6095 32.1468H79.8727C80.1061 32.1468 80.2217 32.0215 80.2217 31.771C80.2217 31.376 80.0483 31.0766 79.7057 30.8748C79.3609 30.6731 78.9349 30.5733 78.4231 30.5733C77.7615 30.5733 77.2925 30.6964 77.0206 30.9428C76.7444 31.187 76.6095 31.5883 76.6095 32.1468Z" fill="black"/>
<path d="M88.6773 30.6456H86.0865C85.7653 30.6456 85.4912 30.6817 85.2685 30.7539C85.0437 30.8261 84.8681 30.9195 84.7375 31.0321C84.6069 31.1446 84.5063 31.2975 84.4356 31.4929C84.365 31.6861 84.32 31.8772 84.3007 32.062C84.2836 32.2467 84.2729 32.4782 84.2729 32.7521C84.2729 33.0983 84.29 33.3828 84.3264 33.6058C84.3628 33.8288 84.4378 34.0454 84.5555 34.2598C84.6711 34.4743 84.8574 34.6314 85.1122 34.7313C85.367 34.8332 85.6925 34.882 86.0865 34.882H88.8379V35.9713H85.6968C84.5598 35.9713 83.7676 35.6996 83.32 35.1538C82.8725 34.6102 82.6477 33.8075 82.6477 32.7521C82.6477 31.7031 82.8704 30.9089 83.32 30.3674C83.7676 29.8259 84.5598 29.5562 85.6968 29.5562H88.6773V30.6456Z" fill="black"/>
<path d="M89.7803 35.9713V27.4984H91.3519V29.5561H93.4867C94.3646 29.5561 95.0434 29.7217 95.5273 30.053C96.0112 30.3843 96.2531 30.9491 96.2531 31.7476V35.9713H94.6815V32.1213C94.6815 31.6202 94.5659 31.2507 94.3325 31.0086C94.0991 30.7665 93.7201 30.6455 93.1912 30.6455H91.3519V35.9713H89.7803Z" fill="black"/>
</g>
<defs>
<clipPath id="clip0_2_4632">
<rect width="96" height="40" fill="white"/>
</clipPath>
</defs>
</svg>
