<svg width="48" height="48" viewBox="0 0 48 48" fill="none" xmlns="http://www.w3.org/2000/svg">
<path d="M38.0002 45.9997V35.7697C38.0002 33.7677 37.9302 32.1397 37.8342 30.8527C37.6642 28.5707 35.7302 26.9887 33.4442 27.0677C26.9872 27.2907 20.3362 28.0587 14.2092 29.2907C12.0222 29.7307 10.3472 31.4347 10.1622 33.6577C10.0505 35.0405 9.99648 36.4274 10.0002 37.8147V45.9997M23.0342 2.0197C23.5942 1.8897 24.0472 2.3927 24.0232 2.9677C23.9222 5.4217 24.0852 9.3977 25.9422 11.4027C26.3312 11.8227 26.9642 11.9387 27.4292 11.6047C28.5392 10.8087 29.2942 9.0787 29.7942 7.3707C30.0172 6.6107 30.9722 6.3327 31.4652 6.9517C32.9192 8.7727 34.0002 11.0397 34.0002 13.7537C34.0002 19.4477 29.5232 22.0017 24.0002 22.0017C18.4772 22.0017 14.0002 19.4477 14.0002 13.7537C14.0002 8.0017 18.8632 4.2557 21.8062 2.5137C22.1962 2.2837 22.6102 2.1187 23.0342 2.0197Z" stroke="#EE0033" stroke-width="3" stroke-linecap="round"/>
</svg>
