<svg width="48" height="48" viewBox="0 0 48 48" fill="none" xmlns="http://www.w3.org/2000/svg">
<path d="M11.0657 35.3576C10.3621 33.659 10 31.8385 10 30C10 28.1615 10.3621 26.341 11.0657 24.6424C11.7693 22.9439 12.8005 21.4005 14.1005 20.1005C15.4005 18.8005 16.9439 17.7693 18.6424 17.0657C20.341 16.3621 22.1615 16 24 16C25.8385 16 27.659 16.3621 29.3576 17.0657C31.0561 17.7693 32.5995 18.8005 33.8995 20.1005C35.1995 21.4005 36.2307 22.9439 36.9343 24.6424C37.6379 26.341 38 28.1615 38 30C38 31.8385 37.6379 33.659 36.9343 35.3576C36.2307 37.0561 35.1995 38.5995 33.8995 39.8995C32.5995 41.1995 31.0561 42.2307 29.3576 42.9343C27.659 43.6379 25.8385 44 24 44C22.1615 44 20.341 43.6379 18.6424 42.9343C16.9439 42.2307 15.4005 41.1995 14.1005 39.8995C12.8005 38.5995 11.7693 37.0561 11.0657 35.3576Z" stroke="#EE0033" stroke-width="3" stroke-linecap="round"/>
<path d="M16 8L24 16L32 8L28 4H24H20L16 8Z" stroke="#EE0033" stroke-width="3" stroke-linecap="round"/>
</svg>
